<svg width="80" height="80" viewBox="0 0 80 80" fill="none" xmlns="http://www.w3.org/2000/svg">
<rect width="80" height="80" fill="#F8F8F8"/>
<path fill-rule="evenodd" clip-rule="evenodd" d="M24.0916 47.3138C26.0711 45.3342 28.7559 44.2222 31.5554 44.2222H48.4439C51.2434 44.2222 53.9282 45.3342 55.9077 47.3138C57.8872 49.2933 58.9993 51.9781 58.9993 54.7775V58.9997C58.9993 60.1656 58.0541 61.1107 56.8882 61.1107C55.7223 61.1107 54.7771 60.1656 54.7771 58.9997V54.7775C54.7771 53.0978 54.1099 51.487 52.9222 50.2993C51.7345 49.1116 50.1236 48.4443 48.4439 48.4443H31.5554C29.8757 48.4443 28.2648 49.1116 27.0771 50.2993C25.8894 51.487 25.2221 53.0978 25.2221 54.7775V58.9997C25.2221 60.1656 24.277 61.1107 23.1111 61.1107C21.9452 61.1107 21 60.1656 21 58.9997V54.7775C21 51.9781 22.1121 49.2933 24.0916 47.3138Z" fill="#38A3FF"/>
<path fill-rule="evenodd" clip-rule="evenodd" d="M39.9997 23.1113C36.502 23.1113 33.6665 25.9468 33.6665 29.4445C33.6665 32.9422 36.502 35.7777 39.9997 35.7777C43.4974 35.7777 46.3329 32.9422 46.3329 29.4445C46.3329 25.9468 43.4974 23.1113 39.9997 23.1113ZM29.4443 29.4445C29.4443 23.615 34.1701 18.8892 39.9997 18.8892C45.8292 18.8892 50.555 23.615 50.555 29.4445C50.555 35.2741 45.8292 39.9999 39.9997 39.9999C34.1701 39.9999 29.4443 35.2741 29.4443 29.4445Z" fill="#38A3FF"/>
</svg>
