<svg width="30" height="30" viewBox="0 0 30 30" fill="none" xmlns="http://www.w3.org/2000/svg">
<path d="M28.631 15.7187C28.6737 15.2675 28.6957 14.8102 28.6957 14.3478C28.6957 6.42374 22.2719 0 14.3478 0C6.42374 0 0 6.42374 0 14.3478C0 22.2719 6.42374 28.6957 14.3478 28.6957C14.8102 28.6957 15.2675 28.6737 15.7187 28.631C14.9793 27.8919 14.3661 27.0266 13.9141 26.0701C7.63666 25.842 2.6176 20.6811 2.6176 14.3478C2.6176 7.8694 7.8694 2.6176 14.3478 2.6176C20.6811 2.6176 25.842 7.63666 26.0701 13.9141C27.0266 14.3661 27.8919 14.9793 28.631 15.7187Z" fill="white"/>
<path d="M16.7512 14.8273L15.6522 14.1928V6.52163C15.6522 5.80127 15.0682 5.21729 14.3478 5.21729C13.6274 5.21729 13.0435 5.80125 13.0435 6.52163V14.9565C13.0435 14.9565 13.0435 15.2965 13.2087 15.5523C13.3193 15.7692 13.4918 15.9577 13.7183 16.0885L14.839 16.7356C15.3785 16.0091 16.0235 15.3654 16.7512 14.8273Z" fill="white"/>
<path d="M19.5653 20.8696C18.8449 20.8696 18.261 21.4536 18.261 22.174C18.261 22.8944 18.8449 23.4783 19.5653 23.4783H24.7827C25.5031 23.4783 26.0871 22.8944 26.0871 22.174C26.0871 21.4536 25.5031 20.8696 24.7827 20.8696H19.5653Z" fill="white"/>
<path fill-rule="evenodd" clip-rule="evenodd" d="M30.0001 22.174C30.0001 26.4962 26.4962 30.0001 22.174 30.0001C17.8518 30.0001 14.3479 26.4962 14.3479 22.174C14.3479 17.8518 17.8518 14.3479 22.174 14.3479C26.4962 14.3479 30.0001 17.8518 30.0001 22.174ZM16.933 22.174C16.933 25.0685 19.2795 27.415 22.174 27.415C25.0685 27.415 27.415 25.0685 27.415 22.174C27.415 19.2795 25.0685 16.933 22.174 16.933C19.2795 16.933 16.933 19.2795 16.933 22.174Z" fill="white"/>
</svg>
