<svg width="47" height="56" viewBox="0 0 47 56" fill="none" xmlns="http://www.w3.org/2000/svg">
<rect x="9" y="9" width="28" height="5" fill="white"/>
<rect x="9" y="18" width="23" height="5" fill="white"/>
<rect x="9" y="28" width="14" height="5" fill="white"/>
<path d="M4.60044 11.6665C4.60044 7.80051 7.73445 4.66651 11.6004 4.66651H34.4002C38.2662 4.66651 41.4002 7.80051 41.4002 11.6665V28.0337C41.4002 29.3039 42.4299 30.3336 43.7001 30.3336C44.9703 30.3336 46 29.3039 46 28.0337V7C46 3.13401 42.866 0 39 0H7C3.13401 0 0 3.13401 0 7V49C0 52.866 3.13401 56 7 56H22.9588C24.2474 56 25.292 54.9554 25.292 53.6667C25.292 52.3781 24.2474 51.3335 22.9588 51.3335H11.6004C7.73445 51.3335 4.60044 48.1995 4.60044 44.3335V11.6665Z" fill="white"/>
<path d="M25 44.5001L31.3337 52L44 37" stroke="white" stroke-width="4.5" stroke-linecap="round" stroke-linejoin="round"/>
</svg>
