<svg width="48" height="56" viewBox="0 0 48 56" fill="none" xmlns="http://www.w3.org/2000/svg">
<rect x="9" y="9" width="28" height="5" fill="white"/>
<rect x="9" y="18" width="23" height="5" fill="white"/>
<rect x="9" y="28" width="14" height="5" fill="white"/>
<path d="M4.60044 11.6665C4.60044 7.80051 7.73445 4.66651 11.6004 4.66651H34.4002C38.2662 4.66651 41.4002 7.80051 41.4002 11.6665V28.0337C41.4002 29.3039 42.4299 30.3336 43.7001 30.3336C44.9703 30.3336 46 29.3039 46 28.0337V7C46 3.13401 42.866 0 39 0H7C3.13401 0 0 3.13401 0 7V49C0 52.866 3.13401 56 7 56H22.9588C24.2474 56 25.292 54.9554 25.292 53.6667C25.292 52.3781 24.2474 51.3335 22.9588 51.3335H11.6004C7.73445 51.3335 4.60044 48.1995 4.60044 44.3335V11.6665Z" fill="white"/>
<path d="M47.1218 38.8771C45.9508 37.7076 44.0592 37.7076 42.8882 38.8771L38.985 42.7755L35.1118 38.9071C33.9408 37.7376 32.0492 37.7376 30.8782 38.9071C29.7073 40.0766 29.7073 41.9658 30.8782 43.1354L34.7515 47.0037L30.8782 50.8721C29.7073 52.0417 29.7073 53.9309 30.8782 55.1004C32.0492 56.2699 33.9408 56.2699 35.1118 55.1004L38.985 51.232L42.8582 55.1004C43.4587 55.7001 44.2093 56 44.99 56C45.7706 56 46.5213 55.7001 47.1218 55.1304C48.2927 53.9608 48.2927 52.0716 47.1218 50.9021L43.2185 47.0037L47.0917 43.1354C48.2927 41.9658 48.2927 40.0466 47.1218 38.8771Z" fill="white"/>
</svg>
