<svg width="30" height="30" viewBox="0 0 30 30" fill="none" xmlns="http://www.w3.org/2000/svg">
<path d="M0.00155835 27.8384C0.00155835 28.4327 0.207261 28.9469 0.618666 29.3812C1.03007 29.8154 1.5329 30.0211 2.12715 29.9983H17.1434V29.6212C15.8635 29.1869 14.8236 28.4098 14.0236 27.2899C13.2237 26.1699 12.8351 24.9243 12.858 23.5529C12.858 22.113 13.2808 20.8331 14.1265 19.7132C14.9721 18.5932 16.0692 17.839 17.4177 17.4504C17.692 16.5819 18.1262 15.8048 18.7205 15.1191C19.3147 14.4335 20.0347 13.8963 20.8804 13.5078C21.2461 12.525 21.4289 11.5879 21.4289 10.6965V8.57094C21.4289 6.19393 20.5832 4.17119 18.8919 2.50271C17.2006 0.834238 15.1893 0 12.858 0C10.5267 0 8.50393 0.834238 6.78974 2.50271C5.07555 4.17119 4.24132 6.19393 4.28703 8.57094V10.6965C4.28703 12.205 4.65272 13.5992 5.38411 14.8792C6.1155 16.1591 7.10972 17.199 8.3668 17.999C7.29257 18.3875 6.25263 18.9246 5.24697 19.6103C4.24132 20.296 3.34994 21.0617 2.57284 21.9073C1.79574 22.753 1.16721 23.6901 0.687233 24.7186C0.207261 25.7471 -0.0212975 26.787 0.00155835 27.8384ZM17.1434 23.5529C17.1434 24.1472 17.3491 24.6614 17.7605 25.0957C18.1719 25.53 18.6748 25.7357 19.269 25.7128H21.4289V27.8384C21.4289 28.4555 21.6346 28.9698 22.046 29.3812C22.4574 29.7926 22.9602 29.9983 23.5545 29.9983C24.1488 29.9983 24.6516 29.7926 25.063 29.3812C25.4744 28.9698 25.6915 28.4555 25.7144 27.8384V25.7128H27.84C28.4342 25.7128 28.937 25.5071 29.3485 25.0957C29.7599 24.6843 29.977 24.17 29.9998 23.5529C30.0227 22.9358 29.8056 22.433 29.3485 22.0445C28.8913 21.6559 28.3885 21.4502 27.84 21.4273H25.7144V19.2675C25.7144 18.6732 25.4972 18.1704 25.063 17.759C24.6287 17.3476 24.1259 17.1419 23.5545 17.1419C22.9831 17.1419 22.4803 17.3476 22.046 17.759C21.6118 18.1704 21.406 18.6732 21.4289 19.2675V21.4273H19.269C18.6748 21.4273 18.1719 21.633 17.7605 22.0445C17.3491 22.4559 17.1434 22.9587 17.1434 23.5529Z" fill="white"/>
</svg>
