<svg width="32" height="30" viewBox="0 0 32 30" fill="none" xmlns="http://www.w3.org/2000/svg">
<path fill-rule="evenodd" clip-rule="evenodd" d="M14.0634 14.0634V9.71711H16.961V14.0634H21.3073V16.961H16.961V21.3073H14.0634V16.961H9.71711V14.0634H14.0634ZM15.5122 30C7.51084 30 1.02444 23.5136 1.02444 15.5122C1.02444 7.51084 7.51084 1.02444 15.5122 1.02444C23.5136 1.02444 30 7.51084 30 15.5122C30 23.5136 23.5136 30 15.5122 30ZM15.5122 27.1024C21.9133 27.1024 27.1024 21.9133 27.1024 15.5122C27.1024 9.11112 21.9133 3.922 15.5122 3.922C9.11112 3.922 3.922 9.11112 3.922 15.5122C3.922 21.9133 9.11112 27.1024 15.5122 27.1024ZM23.9048 2.04888L25.9537 0L31.0244 5.07072L28.9756 7.1196L23.9048 2.04888ZM5.07072 0L7.1196 2.04888L2.04888 7.1196L0 5.07072L5.07072 0Z" fill="white"/>
</svg>
