<svg width="24" height="24" viewBox="0 0 24 24" fill="none" xmlns="http://www.w3.org/2000/svg">
<path d="M23.7582 22.5857L20.9315 19.7589C21.7157 18.7291 22.1878 17.448 22.1878 16.0584C22.1853 14.4339 21.5386 12.8767 20.3895 11.7283C19.2405 10.58 17.6829 9.93425 16.0584 9.93274C14.4345 9.93526 12.8779 10.5814 11.7297 11.7297C10.5814 12.8779 9.93526 14.4345 9.93274 16.0584C9.93425 17.6832 10.5803 19.2411 11.729 20.3902C12.8778 21.5393 14.4354 22.1858 16.0603 22.1878C17.4518 22.1878 18.7329 21.7157 19.7608 20.9315L22.5876 23.7563C22.6639 23.8335 22.7547 23.8948 22.8549 23.9366C22.955 23.9784 23.0625 24 23.171 24C23.2795 24 23.387 23.9784 23.4871 23.9366C23.5873 23.8948 23.6781 23.8335 23.7544 23.7563C23.8318 23.6798 23.8932 23.5888 23.9353 23.4885C23.9773 23.3882 23.9991 23.2806 23.9995 23.1718C23.9998 23.063 23.9787 22.9553 23.9373 22.8547C23.8959 22.7541 23.8351 22.6627 23.7582 22.5857ZM11.5869 16.0584C11.5884 14.8724 12.0602 13.7355 12.8988 12.8969C13.7374 12.0583 14.8743 11.5865 16.0603 11.585C17.2467 11.585 18.3845 12.0563 19.2234 12.8952C20.0623 13.7342 20.5336 14.872 20.5336 16.0584C20.5336 17.2448 20.0623 18.3826 19.2234 19.2215C18.3845 20.0604 17.2467 20.5317 16.0603 20.5317C14.8745 20.5297 13.7378 20.0578 12.8994 19.2193C12.0609 18.3808 11.5889 17.2442 11.5869 16.0584ZM18.6206 6.20749C18.6206 6.66434 18.2494 7.03363 17.7925 7.03363H9.51777C9.29866 7.03363 9.08853 6.94659 8.9336 6.79166C8.77866 6.63673 8.69162 6.42659 8.69162 6.20749C8.69162 5.98838 8.77866 5.77825 8.9336 5.62332C9.08853 5.46838 9.29866 5.38135 9.51777 5.38135H17.7925C18.2494 5.38135 18.6206 5.75063 18.6206 6.20749ZM2.76015 22.3439H8.27665C8.48656 22.3581 8.68322 22.4516 8.82687 22.6053C8.97052 22.759 9.05042 22.9616 9.05042 23.172C9.05042 23.3823 8.97052 23.5849 8.82687 23.7386C8.68322 23.8923 8.48656 23.9858 8.27665 24H2.76015C1.24112 24 0 22.7627 0 21.2398V6.51777C0 6.14657 0.133249 5.7868 0.371193 5.50127L4.54759 0.532995C4.68764 0.366316 4.86243 0.232254 5.05971 0.140188C5.25699 0.0481225 5.47201 0.000277251 5.68972 0H19.1707C20.6916 0 21.9308 1.23731 21.9308 2.76015V8.68782C21.9308 8.90743 21.8436 9.11804 21.6883 9.27333C21.533 9.42862 21.3224 9.51586 21.1028 9.51586C20.8832 9.51586 20.6726 9.42862 20.5173 9.27333C20.362 9.11804 20.2747 8.90743 20.2747 8.68782V2.75825C20.2742 2.46642 20.1582 2.18666 19.952 1.98013C19.7459 1.7736 19.4663 1.6571 19.1745 1.65609H7.03553V6.44162C7.03201 6.7905 6.89043 7.12377 6.64178 7.3685C6.39312 7.61323 6.05764 7.74949 5.70876 7.74746H1.65799V21.2418C1.65799 21.849 2.15292 22.3439 2.76015 22.3439ZM5.38135 2.11294L2.0368 6.09137H5.38135V2.11294ZM7.45051 14.5051C7.67012 14.5051 7.88074 14.4178 8.03602 14.2625C8.19131 14.1073 8.27855 13.8966 8.27855 13.677C8.27855 13.4574 8.19131 13.2468 8.03602 13.0915C7.88074 12.9362 7.67012 12.849 7.45051 12.849H4.5533C4.33369 12.849 4.12307 12.9362 3.96778 13.0915C3.81249 13.2468 3.72525 13.4574 3.72525 13.677C3.72525 13.8966 3.81249 14.1073 3.96778 14.2625C4.12307 14.4178 4.33369 14.5051 4.5533 14.5051H7.45051ZM7.45051 18.3065C7.66987 18.3065 7.88024 18.2193 8.03535 18.0642C8.19046 17.9091 8.2776 17.6987 8.2776 17.4794C8.2776 17.26 8.19046 17.0496 8.03535 16.8945C7.88024 16.7394 7.66987 16.6523 7.45051 16.6523H4.5533C4.33394 16.6523 4.12357 16.7394 3.96846 16.8945C3.81335 17.0496 3.72621 17.26 3.72621 17.4794C3.72621 17.6987 3.81335 17.9091 3.96846 18.0642C4.12357 18.2193 4.33394 18.3065 4.5533 18.3065H7.45051ZM8.27665 9.11421H4.5533C4.33394 9.11421 4.12357 9.20135 3.96846 9.35646C3.81335 9.51157 3.72621 9.72195 3.72621 9.94131C3.72621 10.1607 3.81335 10.371 3.96846 10.5262C4.12357 10.6813 4.33394 10.7684 4.5533 10.7684H8.27665C8.49601 10.7684 8.70638 10.6813 8.86149 10.5262C9.0166 10.371 9.10374 10.1607 9.10374 9.94131C9.10374 9.72195 9.0166 9.51157 8.86149 9.35646C8.70638 9.20135 8.49601 9.11421 8.27665 9.11421Z" fill="white"/>
</svg>
