<svg width="27" height="30" viewBox="0 0 27 30" fill="none" xmlns="http://www.w3.org/2000/svg">
<path d="M23.6105 3.79271H17.0501L17.0159 3.55353C16.9248 2.55125 16.5034 1.70843 15.7517 1.02506C15 0.341686 14.1116 0 13.0866 0C12.0615 0 11.1731 0.341686 10.4214 1.02506C9.6697 1.70843 9.24829 2.55125 9.15718 3.55353L9.12301 3.79271H2.56264C1.85649 3.79271 1.25285 4.04328 0.751708 4.54442C0.250569 5.04556 0 5.6492 0 6.35535V27.4032C0 28.1093 0.250569 28.7187 0.751708 29.2312C1.25285 29.7437 1.85649 30 2.56264 30H23.6105C24.3166 30 24.9203 29.7437 25.4214 29.2312C25.9226 28.7187 26.1731 28.1093 26.1731 27.4032V6.38952C26.1731 5.66059 25.9226 5.04556 25.4214 4.54442C24.9203 4.04328 24.3166 3.79271 23.6105 3.79271ZM13.0866 2.3918C13.4966 2.3918 13.8497 2.53986 14.1458 2.83599C14.4419 3.13212 14.59 3.49089 14.59 3.9123C14.59 4.33371 14.4419 4.69248 14.1458 4.98861C13.8497 5.28474 13.4966 5.4328 13.0866 5.4328C12.6765 5.4328 12.3235 5.28474 12.0273 4.98861C11.7312 4.69248 11.5831 4.33371 11.5831 3.9123C11.5831 3.49089 11.7312 3.13212 12.0273 2.83599C12.3235 2.53986 12.6765 2.3918 13.0866 2.3918ZM14.1458 23.2688H6.15034C5.96811 23.2688 5.80866 23.2062 5.67198 23.0809C5.53531 22.9556 5.46697 22.8018 5.46697 22.6196V20.9795C5.46697 20.7973 5.53531 20.6435 5.67198 20.5182C5.80866 20.3929 5.96811 20.3303 6.15034 20.3303H14.1458C14.328 20.3303 14.4875 20.3929 14.6241 20.5182C14.7608 20.6435 14.8292 20.7973 14.8292 20.9795V22.6196C14.8292 22.8018 14.7608 22.9556 14.6241 23.0809C14.4875 23.2062 14.328 23.2688 14.1458 23.2688ZM20.0228 18.1435H6.15034C5.96811 18.1435 5.80866 18.0809 5.67198 17.9556C5.53531 17.8303 5.46697 17.6765 5.46697 17.4943V15.8542C5.46697 15.672 5.53531 15.5125 5.67198 15.3759C5.80866 15.2392 5.96811 15.1708 6.15034 15.1708H20.0228C20.205 15.1708 20.3645 15.2392 20.5011 15.3759C20.6378 15.5125 20.7062 15.672 20.7062 15.8542V17.4943C20.7062 17.6765 20.6378 17.8303 20.5011 17.9556C20.3645 18.0809 20.205 18.1435 20.0228 18.1435ZM20.0228 13.0182H6.15034C5.96811 13.0182 5.80866 12.9556 5.67198 12.8303C5.53531 12.705 5.46697 12.5399 5.46697 12.3349V10.7289C5.46697 10.5467 5.53531 10.3872 5.67198 10.2506C5.80866 10.1139 5.96811 10.0456 6.15034 10.0456H20.0228C20.205 10.0456 20.3645 10.1139 20.5011 10.2506C20.6378 10.3872 20.7062 10.5467 20.7062 10.7289V12.3349C20.7062 12.5399 20.6378 12.705 20.5011 12.8303C20.3645 12.9556 20.205 13.0182 20.0228 13.0182Z" fill="white"/>
</svg>
