<svg width="50" height="50" viewBox="0 0 50 50" fill="none" xmlns="http://www.w3.org/2000/svg">
<path d="M0 25.5098C0 19.7887 1.49012e-07 16.9282 1.298 14.5569C2.596 12.1855 4.96737 10.7138 9.71007 7.77032L14.7101 4.66717C19.7235 1.55572 22.2302 0 25 0C27.7698 0 30.2765 1.55572 35.29 4.66717L40.29 7.7703C45.0327 10.7138 47.404 12.1855 48.702 14.5569C50 16.9282 50 19.7887 50 25.5098V29.3125C50 39.0645 50 43.9407 47.071 46.9702C44.1422 50 39.428 50 30 50H20C10.5719 50 5.85788 50 2.92893 46.9702C2.98023e-07 43.9407 0 39.0645 0 29.3125V25.5098Z" fill="#38A3FF"/>
<path d="M23.125 40C23.125 41.0355 23.9645 41.875 25 41.875C26.0355 41.875 26.875 41.0355 26.875 40V32.5C26.875 31.4645 26.0355 30.625 25 30.625C23.9645 30.625 23.125 31.4645 23.125 32.5V40Z" fill="#ffffff"/>
</svg>
