<svg width="54" height="54" viewBox="0 0 54 54" fill="none" xmlns="http://www.w3.org/2000/svg">
<path d="M2.91017 29.3948C1.96157 22.802 1.48727 19.5057 2.83842 16.6874C4.18957 13.869 7.06547 12.1559 12.8173 8.72953L16.2794 6.66717C21.5026 3.55572 24.1142 2 27 2C29.8857 2 32.4975 3.55572 37.7205 6.66717L41.1827 8.72953C46.9345 12.1559 49.8105 13.869 51.1615 16.6874C52.5127 19.5057 52.0385 22.802 51.0897 29.3948L50.393 34.238C49.1742 42.7067 48.565 46.941 45.6275 49.4705C42.6897 52 38.3815 52 29.7652 52H24.2347C15.6184 52 11.3102 52 8.37257 49.4705C5.43489 46.941 4.82562 42.7067 3.60709 34.238L2.91017 29.3948Z" stroke="#9DB2CE" stroke-width="3.75"/>
<path d="M27 34.5V42" stroke="#9DB2CE" stroke-width="3.75" stroke-linecap="round"/>
</svg>
