<svg width="33" height="30" viewBox="0 0 33 30" fill="none" xmlns="http://www.w3.org/2000/svg">
<path d="M26.3321 3.60021H19.4442V2.40022C19.4442 2.08196 19.3177 1.77674 19.0927 1.5517C18.8676 1.32666 18.5624 1.20023 18.2442 1.20023H15.8442C15.5259 1.20023 15.2207 1.32666 14.9957 1.5517C14.7706 1.77674 14.6442 2.08196 14.6442 2.40022V3.60021H11.3274L4.38068 0.127438C4.11383 -0.00661185 3.80652 -0.0361276 3.51903 0.0446796C3.23155 0.125487 2.98462 0.310786 2.82669 0.564234C-3.52486 10.727 2.80269 19.8073 2.86869 19.8973C3.03463 20.1298 3.27806 20.2954 3.55521 20.3645C3.83235 20.4335 4.12505 20.4015 4.38068 20.2741L11.3286 16.8001H14.6442C14.6442 17.1184 14.7706 17.4236 14.9957 17.6486C15.2207 17.8737 15.5259 18.0001 15.8442 18.0001H18.2442C18.5624 18.0001 18.8676 17.8737 19.0927 17.6486C19.3177 17.4236 19.4442 17.1184 19.4442 16.8001H20.6382C20.5542 17.6485 19.9854 23.2357 19.4622 26.1912C19.3206 26.9952 19.5438 27.7992 20.0922 28.4508C20.8817 29.3916 22.3169 30 23.7485 30H25.4441C27.4289 30 29.0441 28.3848 29.0441 26.4V16.1641C31.1645 15.1441 32.6441 12.9937 32.6441 10.4882V9.91216C32.6441 6.43219 29.8121 3.60021 26.3321 3.60021ZM9.84424 14.8585L4.29908 17.6305C3.12549 15.4585 0.657107 9.49696 4.31348 2.77582L9.84424 5.5418V14.8585ZM14.6442 14.4001H12.2442V6.00019H14.6442V14.4001ZM26.6441 26.4C26.6441 26.7183 26.5177 27.0235 26.2926 27.2486C26.0676 27.4736 25.7624 27.6 25.4441 27.6H23.7485C23.0549 27.6 22.2569 27.2964 21.9305 26.9088C21.8009 26.7528 21.8165 26.6628 21.8249 26.6088C22.4069 23.3293 23.0129 17.1769 23.0381 16.9177C23.0417 16.8769 23.0261 16.8397 23.0261 16.8001H26.3309C26.4389 16.8001 26.5385 16.7737 26.6441 16.7689V26.4ZM30.2441 10.4882C30.2428 11.5253 29.8302 12.5196 29.0969 13.2529C28.3635 13.9863 27.3692 14.3989 26.3321 14.4001H19.4442V6.00019H26.3321C27.3692 6.00146 28.3635 6.41402 29.0969 7.14738C29.8302 7.88075 30.2428 8.87503 30.2441 9.91216V10.4882Z" fill="white"/>
</svg>
