<svg width="30" height="30" viewBox="0 0 30 30" fill="none" xmlns="http://www.w3.org/2000/svg">
<path d="M5.45508 19.0898V8.17969H2.72461C1.22461 8.17969 0 9.4043 0 10.9102V27.2754C0 28.7754 1.22461 30 2.72461 30H19.0898C20.5957 30 21.8145 28.7754 21.8145 27.2754V24.5508H10.9102C7.89844 24.5449 5.45508 22.1016 5.45508 19.0898ZM27.2754 0H10.9102C9.4043 0 8.18555 1.22461 8.18555 2.72461V19.0898C8.18555 20.5957 9.41016 21.8145 10.9102 21.8145H27.2754C28.7813 21.8145 30 20.5898 30 19.0898V2.72461C30 1.22461 28.7754 0 27.2754 0ZM25.9102 12.2754H20.4551V17.7305H17.7305V12.2754H12.2754V9.55078H17.7305V4.08984H20.4551V9.54492H25.9102V12.2754Z" fill="white"/>
</svg>
