<svg width="20" height="21" viewBox="0 0 20 21" fill="none" xmlns="http://www.w3.org/2000/svg">
<path d="M10 8H9V14H10V8Z" fill="white"/>
<path d="M10 15H9V16H10V15Z" fill="white"/>
<path d="M17.2727 3.03571H14.6818V2.35714C14.6818 1.99721 14.4998 1.65201 14.1759 1.3975C13.852 1.14298 13.4126 1 12.9545 1H6.04545C5.58735 1 5.14802 1.14298 4.82409 1.3975C4.50016 1.65201 4.31818 1.99721 4.31818 2.35714V3.03571H1.72727C1.26917 3.03571 0.829833 3.1787 0.505906 3.43321C0.18198 3.68773 0 4.03292 0 4.39286V18.6429C0 19.0028 0.18198 19.348 0.505906 19.6025C0.829833 19.857 1.26917 20 1.72727 20H17.2727C17.7308 20 18.1702 19.857 18.4941 19.6025C18.818 19.348 19 19.0028 19 18.6429V4.39286C19 4.03292 18.818 3.68773 18.4941 3.43321C18.1702 3.1787 17.7308 3.03571 17.2727 3.03571ZM6.04545 2.35714H12.9545V5.07143H6.04545V2.35714ZM17.2727 18.6429H1.72727V4.39286H4.31818V6.42857H14.6818V4.39286H17.2727V18.6429Z" fill="white"/>
</svg>
