<svg width="30" height="31" viewBox="0 0 30 31" fill="none" xmlns="http://www.w3.org/2000/svg">
<path d="M15 19.6189C17.0711 19.6189 18.75 17.94 18.75 15.8689C18.75 13.7978 17.0711 12.1189 15 12.1189C12.9289 12.1189 11.25 13.7978 11.25 15.8689C11.25 17.94 12.9289 19.6189 15 19.6189Z" fill="white"/>
<path fill-rule="evenodd" clip-rule="evenodd" d="M3.90555 13.9939C4.6959 9.28294 8.41404 5.5648 13.125 4.77445V0.868896H16.875V4.77445C21.5859 5.5648 25.3041 9.28294 26.0944 13.9939H30V17.7439H26.0944C25.3041 22.4548 21.5859 26.173 16.875 26.9633V30.8689H13.125V26.9633C8.41404 26.173 4.6959 22.4548 3.90555 17.7439H0V13.9939H3.90555ZM7.5 15.8689C7.5 11.7268 10.8579 8.3689 15 8.3689C19.1421 8.3689 22.5 11.7268 22.5 15.8689C22.5 20.011 19.1421 23.3689 15 23.3689C10.8579 23.3689 7.5 20.011 7.5 15.8689Z" fill="white"/>
</svg>
