<svg width="53" height="57" viewBox="0 0 53 57" fill="none" xmlns="http://www.w3.org/2000/svg">
<path d="M5.61597 11.8735C5.61597 8.00752 8.74997 4.87351 12.616 4.87351H35.7587C39.6246 4.87351 42.7586 8.00752 42.7586 11.8735V28.2768C42.7586 29.5589 43.7979 30.5982 45.08 30.5982C46.362 30.5982 47.4013 29.5589 47.4013 28.2769V7.19653C47.4013 3.33054 44.2673 0.196533 40.4013 0.196533H7.97265C4.10666 0.196533 0.972656 3.33054 0.972656 7.19653V49.3222C0.972656 53.1882 4.10666 56.3222 7.97266 56.3222H24.1619C25.4534 56.3222 26.5004 55.2752 26.5004 53.9837C26.5004 52.6922 25.4534 51.6452 24.1619 51.6452H12.616C8.74998 51.6452 5.61597 48.5112 5.61597 44.6452V11.8735Z" fill="white"/>
<path d="M10.2578 9.55042H38.1151V14.2274H10.2578V9.55042ZM10.2578 18.905H33.4718V23.582H10.2578V18.905ZM10.2578 28.259H24.1865V32.936H10.2578V28.259ZM40.4358 32.9366C34.0253 32.9366 28.8285 38.1718 28.8285 44.6297C28.8285 51.0876 34.0253 56.3228 40.4358 56.3228C46.8463 56.3228 52.0432 51.0876 52.0432 44.6297C52.0432 38.1718 46.847 32.9366 40.4358 32.9366ZM40.4358 51.6452C36.5955 51.6452 33.4718 48.4978 33.4718 44.6297C33.4718 40.761 36.5961 37.6142 40.4358 37.6142C44.2762 37.6142 47.3998 40.7616 47.3998 44.6297C47.4005 48.4978 44.2762 51.6452 40.4358 51.6452Z" fill="white"/>
<path d="M42.1776 39.7802H38.6953V45.3607L43.1 49.7576L45.5508 47.2663L42.1776 43.8989V39.7802Z" fill="white"/>
</svg>
