<svg width="20" height="23" viewBox="0 0 20 23" fill="none" xmlns="http://www.w3.org/2000/svg">
<path fill-rule="evenodd" clip-rule="evenodd" d="M1.62718 15.3494C2.66905 14.3075 4.08213 13.7222 5.55556 13.7222H14.4444C15.9179 13.7222 17.3309 14.3075 18.3728 15.3494C19.4147 16.3913 20 17.8044 20 19.2778V21.5C20 22.1137 19.5025 22.6111 18.8889 22.6111C18.2752 22.6111 17.7778 22.1137 17.7778 21.5V19.2778C17.7778 18.3937 17.4266 17.5459 16.8015 16.9208C16.1763 16.2956 15.3285 15.9445 14.4444 15.9445H5.55556C4.6715 15.9445 3.82365 16.2956 3.19853 16.9208C2.57341 17.5459 2.22222 18.3937 2.22222 19.2778V21.5C2.22222 22.1137 1.72476 22.6111 1.11111 22.6111C0.497461 22.6111 0 22.1137 0 21.5V19.2778C0 17.8044 0.585316 16.3913 1.62718 15.3494Z" fill="#38A3FF"/>
<path fill-rule="evenodd" clip-rule="evenodd" d="M9.99989 2.61111C8.15894 2.61111 6.66656 4.10349 6.66656 5.94444C6.66656 7.78539 8.15894 9.27777 9.99989 9.27777C11.8408 9.27777 13.3332 7.78539 13.3332 5.94444C13.3332 4.10349 11.8408 2.61111 9.99989 2.61111ZM4.44434 5.94444C4.44434 2.87619 6.93164 0.388885 9.99989 0.388885C13.0681 0.388885 15.5554 2.87619 15.5554 5.94444C15.5554 9.01269 13.0681 11.5 9.99989 11.5C6.93164 11.5 4.44434 9.01269 4.44434 5.94444Z" fill="#38A3FF"/>
</svg>
