<svg width="41" height="46" viewBox="0 0 41 46" fill="none" xmlns="http://www.w3.org/2000/svg">
<path d="M9.45328 30.0867C6.50584 31.8417 -1.22216 35.4253 3.48471 39.9096C5.78399 42.1001 8.34478 43.6667 11.5643 43.6667H29.9356C33.1552 43.6667 35.716 42.1001 38.0152 39.9096C42.7221 35.4253 34.9942 31.8417 32.0467 30.0867C25.135 25.9711 16.365 25.9711 9.45328 30.0867Z" stroke="#9DB2CE" stroke-width="3" stroke-linecap="round" stroke-linejoin="round"/>
<path d="M30.125 11.375C30.125 16.5527 25.9277 20.75 20.75 20.75C15.5723 20.75 11.375 16.5527 11.375 11.375C11.375 6.19733 15.5723 2 20.75 2C25.9277 2 30.125 6.19733 30.125 11.375Z" stroke="#9DB2CE" stroke-width="3"/>
</svg>
