<svg width="34" height="34" viewBox="0 0 34 34" fill="none" xmlns="http://www.w3.org/2000/svg">
<path d="M2 17C2 9.92893 2 6.39339 4.1967 4.1967C6.39339 2 9.92893 2 17 2C24.071 2 27.6066 2 29.8032 4.1967C32 6.39339 32 9.92893 32 17C32 24.071 32 27.6066 29.8032 29.8032C27.6066 32 24.071 32 17 32C9.92893 32 6.39339 32 4.1967 29.8032C2 27.6066 2 24.071 2 17Z" fill="#E31D1D" stroke="#E31D1D" stroke-width="3.75"/>
<path d="M12.2 23C11.84 23 11.6 22.88 11.36 22.64C10.88 22.16 10.88 21.44 11.36 20.96L20.96 11.36C21.44 10.88 22.16 10.88 22.64 11.36C23.12 11.84 23.12 12.56 22.64 13.04L13.04 22.64C12.8 22.88 12.56 23 12.2 23Z" fill="white"/>
<path d="M21.8 23C21.44 23 21.2 22.88 20.96 22.64L11.36 13.04C10.88 12.56 10.88 11.84 11.36 11.36C11.84 10.88 12.56 10.88 13.04 11.36L22.64 20.96C23.12 21.44 23.12 22.16 22.64 22.64C22.4 22.88 22.16 23 21.8 23Z" fill="white"/>
</svg>
