<svg width="16" height="16" viewBox="0 0 16 16" fill="none" xmlns="http://www.w3.org/2000/svg">
<path d="M2 15.5C1.55 15.5 1.25 15.35 0.95 15.05C0.35 14.45 0.35 13.55 0.95 12.95L12.95 0.95C13.55 0.35 14.45 0.35 15.05 0.95C15.65 1.55 15.65 2.45 15.05 3.05L3.05 15.05C2.75 15.35 2.45 15.5 2 15.5Z" fill="#E31D1D"/>
<path d="M14 15.5C13.55 15.5 13.25 15.35 12.95 15.05L0.95 3.05C0.35 2.45 0.35 1.55 0.95 0.95C1.55 0.35 2.45 0.35 3.05 0.95L15.05 12.95C15.65 13.55 15.65 14.45 15.05 15.05C14.75 15.35 14.45 15.5 14 15.5Z" fill="#E31D1D"/>
</svg>
