<svg width="34" height="34" viewBox="0 0 34 34" fill="none" xmlns="http://www.w3.org/2000/svg">
<path d="M2 17C2 9.92893 2 6.39339 4.1967 4.1967C6.39339 2 9.92893 2 17 2C24.071 2 27.6066 2 29.8032 4.1967C32 6.39339 32 9.92893 32 17C32 24.071 32 27.6066 29.8032 29.8032C27.6066 32 24.071 32 17 32C9.92893 32 6.39339 32 4.1967 29.8032C2 27.6066 2 24.071 2 17Z" fill="#FFEE00" stroke="#FFEE00" stroke-width="3.75"/>
<mask id="mask0_1773_643" style="mask-type:luminance" maskUnits="userSpaceOnUse" x="6" y="6" width="22" height="22">
<path d="M7.75 26.25V7.75H26.25V26.25H7.75Z" fill="white" stroke="white" stroke-width="3.5"/>
</mask>
<g mask="url(#mask0_1773_643)">
<path d="M17.0108 23.875H17V23.8858H17.0108V23.875Z" stroke="white" stroke-width="3.5" stroke-linejoin="round"/>
<path d="M16.5625 10.1244L17 19.7499L17.4375 10.1244C17.4489 9.87493 17.2497 9.6665 17 9.6665C16.7503 9.6665 16.5511 9.87493 16.5625 10.1244Z" stroke="white" stroke-width="3.5" stroke-linecap="round" stroke-linejoin="round"/>
</g>
</svg>
